<svg width="133" height="21" viewBox="0 0 133 21" fill="none" xmlns="http://www.w3.org/2000/svg">
<path d="M0 2.15175H1.73977V9.21423H13.8572V2.15175H15.597V18.8483H13.8572V10.8036H1.73977V18.8483H0V2.15175ZM18.9784 2.15175H32.3211V3.73586H20.7182V9.39376H31.8968V10.9779H20.7182V17.243H32.5094V18.8271H18.9837L18.9784 2.15175ZM49.8674 12.393C49.8674 15.4345 49.0214 19.2575 42.3726 19.2575C35.7237 19.2575 34.8804 15.4239 34.8804 12.393V2.15175H36.6202V12.393C36.6202 16.7652 39.4606 17.6734 42.3726 17.6734C45.2846 17.6734 48.1276 16.7599 48.1276 12.393V2.15175H49.8674V12.393ZM53.3443 2.15175H62.4808C65.3212 2.15175 67.9282 3.15766 67.9282 6.66646C67.9407 7.61603 67.6193 8.54008 67.0198 9.27871C66.4202 10.0173 65.5801 10.5241 64.6449 10.7112V10.764C67.0185 11.1389 67.5118 12.6597 67.6285 15.3949C67.6762 16.451 67.8168 18.4813 68.2172 18.8562H66.3369C66.0319 18.505 65.9152 17.2721 65.8913 15.4424C65.8436 12.496 64.7165 11.5138 61.8283 11.5138H55.0814V18.8562H53.3443V2.15175ZM55.0814 9.91652H62.433C64.3346 9.91652 66.0505 9.21423 66.0505 6.66646C66.0505 4.21109 64.194 3.74378 62.6027 3.74378H55.0814V9.91652ZM70.6545 2.15175H72.3916V18.8483H70.6545V2.15175ZM87.0471 6.92256C86.8137 4.07116 84.4878 3.32134 81.788 3.32134C79.0882 3.32134 77.0434 4.37742 77.0434 6.26779C77.0434 8.4433 79.0855 8.95549 83.1724 9.63402C86.225 10.1489 89.2722 10.8511 89.2722 14.0537C89.2722 18.146 85.5381 19.268 82.2733 19.268C78.03 19.268 74.9217 17.8186 74.6618 13.3303H76.4016C76.7066 16.8364 79.0537 17.6787 82.2733 17.6787C84.7849 17.6787 87.3919 17.0001 87.3919 14.3573C87.3919 11.8095 84.3393 11.5059 81.2921 11.0148C77.298 10.3838 75.1604 9.26175 75.1604 6.57141C75.1604 2.92532 78.5418 1.73196 81.7907 1.73196C85.2198 1.73196 88.6861 2.94644 88.7895 6.92256H87.0471ZM96.3507 3.75434H89.7735V2.17023H104.665V3.75434H98.0878V18.8588H96.3507V3.75434ZM106.357 2.17023H108.094V18.8667H106.357V2.17023ZM122.418 6.27571C122.596 6.28891 122.596 6.28891 122.445 6.62949L122.179 6.61629V2.12799C122.622 3.13917 123.214 4.68368 122.903 5.72127C122.958 5.00347 122.873 4.282 122.654 3.59593C122.681 3.82826 122.726 4.0606 122.752 4.29557C122.779 4.53055 122.8 4.75496 122.811 4.98466C122.821 5.21435 122.811 5.44405 122.811 5.67375H122.771L122.24 3.78073V4.9477H122.288V4.6916C122.415 5.08499 122.601 5.46518 122.516 5.94041L122.232 5.33053V6.52389H122.267L122.397 6.25987L122.418 6.27571ZM127.144 2.01709L126.77 3.07317L126.829 3.09429L127.226 2.02238L127.144 2.01709ZM128.064 3.18934C127.749 3.37151 127.478 3.67513 127.497 3.80978L128.064 3.18934ZM123.556 5.61831C123.612 4.69424 123.715 3.94707 123.776 3.023C123.795 2.75898 123.988 0.446184 124.012 0.158404C124.227 0.195367 124.442 0.23497 124.654 0.282493H124.54C124.476 0.900296 124.412 3.25534 124.349 3.87314C124.484 3.59424 124.589 3.30229 124.664 3.00188C124.72 2.68506 124.694 0.649481 124.702 0.293056C125.583 0.494499 126.434 0.805865 127.237 1.21976C127.2 1.23824 126.736 2.01182 126.707 2.01182L126.03 3.24478L126.166 3.2659C125.961 3.28966 125.948 3.46392 125.9 3.61177L126.147 3.70417C126.37 3.13125 127.033 1.7742 127.25 1.21448C128.031 1.61225 128.759 2.10345 129.42 2.67714C128.791 3.35567 128.168 4.03683 127.539 4.71272C127.34 4.92657 127.112 5.11667 126.932 5.34108C126.752 5.5655 126.593 5.86912 126.402 6.11994C126.195 6.34028 125.975 6.54833 125.744 6.74302C126.134 6.1305 126.386 5.64206 126.388 5.42293C126.269 5.64206 126.158 5.86648 126.022 6.08034C125.757 6.52389 125.693 6.56613 125.492 6.60837C125.808 6.07039 126.034 5.48443 126.16 4.87377L125.365 6.67174L125.282 6.64797C125.277 6.60413 125.277 6.55981 125.282 6.51597C125.489 5.83216 125.701 5.15099 125.903 4.46718C125.918 4.37269 125.918 4.27654 125.903 4.18205C125.874 4.15036 125.932 4.15036 125.943 4.12924C125.985 4.0559 126.013 3.97528 126.025 3.89162C126.025 3.84938 125.961 3.8045 125.927 3.76226C125.879 3.81506 125.81 3.86258 125.786 3.92595C125.723 4.1134 125.672 4.3035 125.622 4.49623C125.455 5.14835 125.29 5.80311 125.121 6.45524C125.081 6.61101 125.038 6.76942 124.985 6.91991C124.956 6.97107 124.914 7.01383 124.863 7.044C124.863 7.044 124.784 7.0044 124.786 6.99912C124.789 6.99383 124.834 6.91727 124.855 6.87503C124.887 6.83127 124.912 6.78326 124.93 6.73246C125.054 6.1437 125.174 5.55494 125.304 4.96882C125.354 4.73912 125.423 4.51206 125.487 4.28501L125.434 4.26917C125.398 4.35538 125.367 4.44352 125.341 4.53319C125.187 5.18795 125.041 5.85328 124.887 6.50012C124.84 6.70606 124.768 6.72718 124.622 6.63213C124.696 6.03809 124.736 5.45725 124.85 4.89226C124.964 4.32726 125.155 3.78074 125.312 3.2263L125.261 3.20782C125.211 3.2791 125.158 3.35039 125.113 3.42432C125.056 3.48899 125.016 3.56588 124.995 3.64885C124.974 3.73183 124.972 3.81858 124.991 3.90219C124.994 3.95876 124.982 4.0152 124.957 4.06606C124.932 4.11693 124.894 4.1605 124.847 4.1926C124.79 4.21748 124.741 4.25744 124.705 4.30817C124.669 4.35889 124.648 4.41844 124.643 4.48039C124.582 5.00842 124.532 5.51797 124.471 6.03545C124.45 6.13421 124.419 6.23062 124.378 6.32323C124.321 6.2866 124.278 6.23167 124.256 6.16746C124.075 5.65418 124.032 5.1025 124.131 4.56751C124.145 4.43936 124.145 4.31019 124.131 4.18205H124.065C123.998 4.48393 123.951 4.79001 123.925 5.09819C123.934 5.38649 123.885 5.67373 123.781 5.94304L123.72 5.89288C123.688 5.98264 123.659 6.06449 123.633 6.1569H123.569C123.569 5.98 123.569 5.80575 123.569 5.62886L123.556 5.61831ZM132.008 12.9633L132.491 12.7362L132.451 12.657L131.974 12.8946C131.974 12.9184 131.995 12.9395 132.008 12.9633ZM129.836 12.0973V12.0788H128.826V12.0973H129.836ZM131.374 15.1362L127.152 13.4728C128.478 14.2491 129.974 14.5685 131.342 15.2154L131.374 15.1362ZM130.417 14.3626L130.38 14.4048L131.311 14.9751L131.342 14.9249L130.417 14.3626ZM125.378 12.9633C125.521 12.9923 125.601 12.9395 125.503 12.8049C125.404 12.6702 125.312 12.8286 125.203 12.8735C125.257 12.9111 125.316 12.9413 125.378 12.9633ZM125.285 12.2029L125.184 12.356L125.296 12.4749C125.301 12.481 125.307 12.4859 125.315 12.4893C125.322 12.4926 125.33 12.4944 125.338 12.4944C125.346 12.4944 125.354 12.4926 125.361 12.4893C125.369 12.4859 125.375 12.481 125.381 12.4749C125.407 12.4273 125.431 12.3851 125.46 12.3376C125.464 12.331 125.466 12.3239 125.466 12.3165C125.467 12.3091 125.466 12.3017 125.463 12.2947C125.461 12.2878 125.457 12.2814 125.452 12.276C125.447 12.2707 125.44 12.2664 125.434 12.2636L125.285 12.2108V12.2029ZM131.059 9.14823H130.152L131.067 9.21423V9.14823H131.059ZM131.425 7.01232C131.072 7.03608 130.29 7.41363 130.194 7.5826L130.584 7.51923L130.475 7.46379L131.425 7.01232ZM132.722 9.12447L131.785 9.51521L131.804 9.55745L132.748 9.18783C132.74 9.16625 132.731 9.1451 132.722 9.12447ZM132.987 10.4921V10.5053H132.955V10.5396H132.987C132.982 11.138 132.927 11.735 132.822 12.3244L132.557 12.5646C132.578 12.5884 132.6 12.6095 132.618 12.6333L132.796 12.4801C132.756 12.6861 132.711 12.8894 132.658 13.0927C132.329 13.3665 131.932 13.5487 131.51 13.6207C131.109 13.7052 130.698 13.8451 130.287 13.6207C130.157 13.5617 130.021 13.5165 129.881 13.486L129.894 13.4491L130.99 13.4966C130.988 13.4799 130.988 13.4631 130.99 13.4464H130.475V13.4095H130.658C129.924 13.4156 129.195 13.283 128.51 13.0187C127.805 12.7838 126.749 12.1475 126.68 11.9468C127.088 12.0788 127.492 12.2108 127.903 12.3349C128.314 12.459 128.698 12.5303 129.088 12.6201C129.079 12.6241 129.071 12.6294 129.064 12.6359V12.6544L129.579 12.6174C129.577 12.6297 129.577 12.6421 129.579 12.6544L129.388 12.6676V12.694H130.417V12.6702L130.059 12.6544C130.639 12.6119 131.21 12.4847 131.754 12.2768C131.155 12.3917 130.55 12.4667 129.942 12.5013C129.339 12.4834 128.738 12.4074 128.149 12.2742C127.558 12.181 126.993 11.9622 126.494 11.6326L126.837 11.7013L126.746 11.6062C126.974 11.6432 127.176 11.7303 127.386 11.7778C127.555 11.8026 127.726 11.8141 127.897 11.8122C128.409 11.8796 128.925 11.9105 129.441 11.9046C130.218 11.8439 130.987 11.6986 131.756 11.5693C132.146 11.5033 132.525 11.395 132.912 11.3053C132.655 11.3141 132.399 11.3406 132.146 11.3845C131.616 11.4531 131.085 11.5244 130.555 11.5772C130.077 11.6421 129.595 11.6756 129.112 11.6775C128.579 11.6466 128.047 11.5857 127.521 11.4953C127.2 11.4505 126.882 11.3713 126.508 11.2947C126.977 11.0571 127.449 11.2261 127.94 11.1046L127.736 11.0412C127.51 11.0412 127.043 11.0254 126.916 11.0412C126.804 11.051 126.697 11.0902 126.606 11.1548C126.606 11.1548 126.585 11.1732 126.558 11.1812C126.455 11.2076 126.234 11.2287 126.171 11.3501C126.165 11.362 126.155 11.3712 126.143 11.3761C126.131 11.381 126.117 11.3811 126.105 11.3765L125.967 11.3211C126.02 11.4452 126.057 11.5429 126.107 11.6353C126.147 11.7097 126.19 11.782 126.237 11.8518C126.241 11.8584 126.244 11.8658 126.244 11.8735C126.245 11.8812 126.244 11.8889 126.242 11.8962C126.239 11.9035 126.235 11.9102 126.23 11.9157C126.224 11.9213 126.218 11.9256 126.211 11.9283L126.041 11.9891C125.693 12.1079 125.617 12.1792 125.622 12.5013C125.645 12.649 125.69 12.7924 125.757 12.9263C125.761 12.9365 125.768 12.9453 125.777 12.9514C125.786 12.9576 125.797 12.9608 125.808 12.9606H126.049L125.887 12.8392C126.051 12.7706 126.02 12.7125 125.887 12.628C125.834 12.5937 125.821 12.4986 125.802 12.4273C125.802 12.4088 125.839 12.3798 125.861 12.356C125.904 12.3992 125.951 12.4389 126.001 12.4749C126.105 12.5403 126.214 12.5977 126.327 12.6465C126.372 12.6097 126.405 12.5598 126.42 12.5039C126.436 12.4115 126.351 12.4564 126.311 12.4352C126.215 12.3789 126.126 12.3106 126.046 12.232H126.174L126.094 12.0762C126.298 12.0471 126.508 11.9785 126.648 12.2135H126.494C126.532 12.2425 126.566 12.2927 126.603 12.2927C126.927 12.3085 127.112 12.5382 127.335 12.7177C127.345 12.7238 127.352 12.7328 127.356 12.7435C127.36 12.7542 127.36 12.7658 127.356 12.7765C127.352 12.7872 127.345 12.7964 127.336 12.8025C127.326 12.8086 127.315 12.8113 127.303 12.8102H127.271L126.945 12.723C126.872 12.6729 126.783 12.6513 126.695 12.6625C126.607 12.6737 126.526 12.7169 126.468 12.7838L127.057 12.8181L127.497 12.8709C128.532 13.0516 129.536 13.3759 130.48 13.8345C131.032 14.1266 131.544 14.4877 132.003 14.9091L131.974 14.9698C131.319 14.3634 130.556 13.8835 129.725 13.5547C129.396 13.4306 129.046 13.3593 128.706 13.2643C128.706 13.288 128.688 13.3144 128.68 13.3382C129.438 13.4648 130.162 13.7501 130.801 14.1751C131.183 14.4471 131.547 14.7425 131.891 15.0596C131.898 15.0687 131.902 15.0799 131.902 15.0913C131.902 15.1027 131.898 15.1138 131.891 15.123C131.849 15.211 131.804 15.299 131.756 15.387L131.533 15.4583C131.366 15.3817 131.194 15.3236 131.022 15.2602L130.99 15.2418C130.99 15.2418 130.971 15.2127 130.958 15.2101L129.367 14.8088C129.34 14.7929 129.319 14.7718 129.29 14.756C128.786 14.4972 128.281 14.2394 127.775 13.9824L126.234 13.2194C126.234 13.2194 126.208 13.2194 126.184 13.2194C126.16 13.2194 126.155 13.2933 126.139 13.3329L125.914 13.2669C125.743 13.2047 125.564 13.1656 125.383 13.1507C125.229 13.1507 125.102 13.1903 125.001 13.0399L125.083 13.2247L124.288 13.0531C124.309 13.1639 124.309 13.2854 124.487 13.2801C124.527 13.2801 124.58 13.3329 124.606 13.3752C124.633 13.4174 124.606 13.4544 124.566 13.4728C124.49 13.5243 124.41 13.571 124.328 13.6128C124.317 13.5981 124.305 13.584 124.293 13.5705L124.171 13.4728C124.171 13.5256 124.142 13.5864 124.171 13.626C124.216 13.7105 124.214 13.8609 124.394 13.8134C124.418 13.8134 124.471 13.8873 124.513 13.9296C124.344 14.0378 124.248 14.0035 124.155 13.8293L124.086 13.9613C123.943 13.8953 123.882 13.8187 123.988 13.6973C123.997 13.688 124.002 13.6757 124.002 13.6629C124.002 13.6502 123.997 13.6379 123.988 13.6286L123.842 13.457C123.833 13.4488 123.82 13.4443 123.808 13.4443C123.795 13.4443 123.783 13.4488 123.773 13.457L123.643 13.5415L124.595 12.4194C124.606 12.4315 124.618 12.443 124.63 12.4537C124.736 12.5673 124.808 12.5303 124.847 12.356L124.731 12.3983L124.837 12.1343V12.1211L125.341 11.527C125.35 11.5189 125.363 11.5144 125.375 11.5144C125.388 11.5144 125.4 11.5189 125.41 11.527L125.603 11.6406L125.51 11.7541L125.304 11.5957C125.317 11.7858 125.373 11.8597 125.542 11.8148C125.542 11.8676 125.542 11.9019 125.542 11.9363L125.598 11.9732L125.863 11.667C125.815 11.5191 125.818 11.5349 125.77 11.3897C125.76 11.3856 125.749 11.3856 125.739 11.3897C125.611 11.4716 125.548 11.432 125.497 11.3607L125.632 11.1996L125.67 11.2472L125.701 11.226L125.659 11.1706L126.701 9.94556C126.581 10.1486 126.439 10.3388 126.28 10.5132C126.181 10.632 126.362 10.8274 126.5 10.9937L126.529 10.9752C126.644 10.9369 126.763 10.9165 126.884 10.9145C127.025 10.9145 127.47 10.9673 127.714 10.999C127.779 10.9806 127.848 10.9806 127.913 10.999C128.336 11.1574 128.788 11.2275 129.239 11.2049C129.505 11.1732 129.786 11.1046 130.061 11.0835C130.683 11.0281 131.293 10.8868 131.876 10.6637C131.921 10.6452 131.963 10.6188 132.005 10.5977C132.005 10.5889 132.005 10.5801 132.005 10.5713L130.536 10.9515C130.535 10.9374 130.535 10.9233 130.536 10.9092L132.204 10.0168L132.173 9.9614L131.958 10.067C131.504 10.2941 131.061 10.5422 130.595 10.7429C129.587 11.1785 128.566 11.2709 127.555 10.7429C127.354 10.6347 127.16 10.5106 126.964 10.3917C127.189 10.3917 127.391 10.4551 127.595 10.4762C127.815 10.4978 128.037 10.5049 128.258 10.4974C128.489 10.4935 128.719 10.4776 128.948 10.4498C129.16 10.4208 129.369 10.368 129.478 10.3442C128.982 10.3711 128.486 10.3711 127.99 10.3442C127.589 10.2858 127.194 10.1921 126.81 10.0644C126.765 10.0644 126.738 9.98517 126.704 9.94292C126.845 9.93509 126.987 9.93509 127.128 9.94292C127.724 9.8953 128.307 9.74242 128.849 9.49145C129.194 9.34096 129.555 9.22743 129.91 9.09542C130.064 9.04262 130.229 9.00829 130.388 8.96341C130.361 8.94371 130.33 8.92977 130.298 8.9225C130.266 8.91522 130.232 8.91477 130.199 8.92117C129.669 9.0743 129.162 9.22215 128.651 9.38584C128.077 9.61609 127.468 9.74475 126.85 9.76603L126.919 9.68683C127.42 9.65386 127.909 9.52286 128.359 9.30135C128.214 9.32875 128.07 9.36401 127.929 9.40696L127.529 9.51257V9.49937L129.255 8.82348L129.237 8.7654L128.971 8.80764L129.117 8.63339L128.971 8.53835L128.987 8.59643C128.582 8.76804 128.178 8.95286 127.762 9.10863C127.62 9.15677 127.475 9.19298 127.327 9.21687L129.775 6.32587H128.404L128.908 5.97209C128.677 6.08034 128.438 6.19386 128.208 6.32587H127.526C127.932 6.08826 128.351 5.86912 128.762 5.63678C128.947 5.50309 129.146 5.38978 129.356 5.29884C129.802 5.17211 130.26 5.09291 130.717 5.0005C130.796 4.99491 130.875 5.00113 130.953 5.01898V5.04274L130.316 5.14835C130.699 5.10629 131.085 5.0904 131.47 5.10082C131.568 5.25923 131.661 5.41765 131.735 5.58134L131.65 5.59455V5.62358H131.746C131.822 5.76351 131.897 5.90872 131.968 6.05393C131.934 6.07242 131.899 6.0909 131.868 6.11202C131.349 6.44451 130.809 6.74177 130.25 7.00176C129.97 7.12778 129.734 7.33475 129.573 7.5958C129.644 7.58651 129.709 7.55398 129.759 7.50339C129.985 7.2431 130.273 7.04341 130.597 6.92256C130.807 6.84905 131.01 6.76082 131.207 6.65854C131.472 6.50541 131.754 6.347 132.027 6.18859C132.272 6.71276 132.471 7.25685 132.623 7.81493L130.767 7.52187V7.58788L132.647 7.88885C132.671 7.97598 132.692 8.06311 132.714 8.15287C131.753 8.04463 130.804 7.87302 129.839 7.98655L130.019 7.77005C129.902 7.78873 129.793 7.8405 129.706 7.91916C129.618 7.99782 129.554 8.10005 129.523 8.2136C129.69 7.97862 129.902 8.14232 130.093 8.11592C130.826 8.06088 131.562 8.08389 132.289 8.18456L132.727 8.21624C132.772 8.40898 132.812 8.6017 132.844 8.79708H132.456L132.541 8.87365H131.098C131.357 8.9041 131.618 8.91997 131.878 8.92117C132.085 8.92117 132.292 8.89213 132.501 8.87365H132.541L132.851 8.84724C132.851 8.88948 132.867 8.93173 132.873 8.97397C131.239 9.304 129.555 9.39112 127.998 9.97724C128.242 9.97724 132.218 9.18519 132.875 8.98454C132.897 9.12711 132.915 9.26968 132.931 9.41224L132.557 9.59705C131.777 9.9878 131.053 10.5 130.17 10.6531C129.926 10.698 129.685 10.7719 129.396 10.8432C130.014 10.8339 130.622 10.684 131.173 10.405L132.952 9.52841C132.952 9.52841 132.952 9.55218 132.952 9.56274C132.723 9.67829 132.5 9.80791 132.287 9.95084L132.881 9.91124L132.703 10.0063L132.719 10.0485L132.984 9.99045V10.2201C132.069 11.1996 130.793 11.3792 129.451 11.4056C129.82 11.4056 130.186 11.4056 130.552 11.3792C131.209 11.3343 131.846 11.1333 132.409 10.7931C132.523 10.7447 132.642 10.7076 132.764 10.6822H132.804L132.655 10.6584C132.833 10.5026 132.865 10.4657 133.005 10.463C133.005 10.4842 133.005 10.5026 133.005 10.5238L132.987 10.4921ZM127.234 6.39715C127.226 6.38208 127.216 6.36792 127.205 6.35491C127.215 6.34412 127.224 6.33266 127.232 6.32059H127.197L126.749 6.84863C126.864 6.74665 126.986 6.65311 127.115 6.56876C127.253 6.48164 127.38 6.39715 127.531 6.30475H127.346L127.234 6.38131V6.39715ZM126.046 7.78325C126.069 7.75761 126.089 7.73024 126.107 7.7014C126.15 7.61428 126.197 7.53244 126.248 7.45059L125.998 7.74629L126.046 7.78325ZM124.824 12.129C124.833 12.1151 124.841 12.1 124.847 12.0841L124.797 12.0683C124.797 12.1079 124.797 12.1475 124.778 12.1871L124.829 12.1264L124.824 12.129ZM125.325 11.4742L125.362 11.4953L125.481 11.3554C125.462 11.3317 125.445 11.307 125.428 11.2815L125.325 11.4742ZM123.627 13.5415L123.421 13.6761L123.468 13.7289L123.627 13.5415ZM132.546 13.5415C132.562 13.486 132.581 13.4306 132.597 13.3752L132.387 13.5415H132.546ZM133.005 10.3733V10.2993L132.944 10.3653H133.005V10.3733ZM130.801 13.9322C131.093 14.1276 131.38 14.3098 131.658 14.5052C131.796 14.6002 131.923 14.7111 132.056 14.8167C132.24 14.4187 132.398 14.0096 132.531 13.5916C132.172 13.6565 131.817 13.7447 131.47 13.8557C131.251 13.8965 131.029 13.9203 130.807 13.927L130.801 13.9322ZM127.781 5.99321C128.104 5.61038 128.391 5.20116 128.696 4.79985C128.749 4.72784 128.818 4.66837 128.897 4.6256L127.913 5.94569L127.974 6.00905C128.199 5.86572 128.409 5.70032 128.6 5.51533C128.942 5.10875 129.245 4.66784 129.558 4.24013C129.599 4.16655 129.632 4.08862 129.656 4.00779L129.685 3.97347L129.722 3.95235C129.754 3.93123 129.802 3.92067 129.82 3.89162C129.934 3.73585 130.048 3.58008 130.16 3.42167C129.934 3.18406 129.695 2.95436 129.449 2.73522C128.826 3.46391 128.202 4.18996 127.592 4.92129C126.929 5.75531 126.338 6.64384 125.826 7.57732L125.879 7.62748C126.02 7.49811 126.166 7.36347 126.298 7.23674C126.431 7.11001 126.563 6.93047 126.72 6.77734C126.876 6.62421 127.004 6.48956 127.139 6.34171C127.268 6.18695 127.411 6.04383 127.566 5.914C127.454 6.05393 127.346 6.1965 127.234 6.33907H127.348C127.51 6.24552 127.658 6.13099 127.789 5.99849L127.781 5.99321ZM125.508 7.5958L126.282 6.41036C125.927 6.74302 125.434 6.99384 125.508 7.5958ZM131.098 5.01634L131.419 5.03482L131.372 4.9609H131.106V5.0269L131.098 5.01634ZM122.193 1.05871V2.11478C122.561 2.56625 123.235 4.29557 123.254 5.15363C123.405 4.62559 122.813 2.97548 122.193 1.06663V1.05871ZM122.389 1.33857C122.527 1.76099 123.147 3.05469 123.317 3.54312C123.325 3.56535 123.33 3.58837 123.333 3.61177L123.376 4.04212H123.418V3.58536H123.458V4.04212C123.537 3.36623 123.723 0.821093 123.787 0.145207H123.967C123.376 0.0484993 122.778 -6.18232e-05 122.179 5.9068e-08V1.05607C122.254 1.05607 122.323 1.33593 122.376 1.33593L122.389 1.33857ZM127.2 12.8181L127.5 12.8762L127.765 12.9078V12.8867L127.234 12.8181H127.2ZM124.373 20.8416L124.344 20.7914H124.33L124.373 20.839V20.8416ZM124.76 12.2452V12.1897L124.704 12.2557H124.752L124.76 12.2452ZM124.847 8.38785L125.113 8.12384L124.625 8.07103L124.847 8.38785ZM123.574 7.43475L123.76 7.23937L123.715 7.2737C123.673 7.17073 123.627 7.06777 123.569 6.93048C123.527 7.02024 123.476 7.12321 123.431 7.22617C123.415 7.2648 123.402 7.3045 123.391 7.34498L123.521 7.23145C123.521 7.28162 123.553 7.35027 123.574 7.43475ZM125.609 8.07631L125.686 8.1344L122.195 12.2689V6.60573C122.246 6.78262 122.291 6.93576 122.333 7.08625C122.335 7.10638 122.341 7.12603 122.349 7.14433L122.333 7.08625C122.333 6.98592 122.479 7.08624 122.503 7.01496C122.272 6.89615 122.283 6.88031 122.503 6.7087C122.605 6.59665 122.694 6.47355 122.768 6.34171C122.811 6.27038 122.868 6.20841 122.935 6.15954C123.125 6.03884 123.26 5.84949 123.312 5.6315C123.417 5.29616 123.456 4.94402 123.429 4.59391C123.429 4.49623 123.429 4.39854 123.429 4.30349H123.476C123.45 4.93186 123.421 5.55758 123.394 6.2097C123.354 6.16482 123.33 6.13049 123.304 6.09881C123.102 6.1437 122.956 6.2361 122.943 6.45524L123.208 6.27043C123.296 6.58989 123.54 6.60309 123.853 6.4658C123.829 6.64005 123.808 6.75622 123.8 6.87503C123.8 6.90143 123.848 6.93047 123.871 6.95687C123.93 6.79054 123.986 6.62421 124.047 6.44732L124.336 6.81166L124.227 7.00968L124.322 7.04664C124.322 7.14169 124.298 7.23409 124.288 7.32914C124.426 7.27936 124.559 7.21752 124.686 7.14433C124.855 7.02288 124.826 7.15753 124.842 7.22617L125.107 7.16281C125.073 7.25785 125.046 7.33442 125.012 7.42682C124.834 7.23937 124.76 7.45059 124.675 7.45851C124.633 7.59052 124.595 7.70404 124.561 7.81493C124.71 7.85981 124.71 7.85982 124.68 7.71989C124.651 7.57996 124.68 7.49811 124.826 7.49547C124.972 7.49283 125.16 7.51131 125.373 7.52187C125.312 7.69613 125.256 7.84397 125.2 7.9971L125.325 8.02086L125.184 8.21096C125.228 8.21005 125.271 8.20564 125.314 8.19776C125.473 8.15288 125.484 8.01559 125.503 7.88622L125.391 7.82549C125.41 7.79909 125.42 7.76213 125.447 7.74893C125.545 7.7014 125.646 7.65917 125.765 7.60636C125.805 7.80702 125.609 7.76741 125.545 7.84662L125.704 7.92846L125.593 8.06311L125.609 8.07631ZM122.259 18.109C122.465 17.2819 122.465 16.4174 122.259 15.5903V18.109ZM122.275 14.1012C122.54 13.9296 122.522 13.8953 122.243 13.5916C122.243 13.7606 122.264 13.9138 122.275 14.1012ZM122.604 13.4517C122.429 13.6418 122.604 13.8345 122.543 14.0062C122.569 13.9745 122.583 13.9138 122.601 13.9111C122.866 13.8794 122.787 13.7474 122.705 13.6075C122.773 13.7157 122.845 13.5916 122.911 13.6075C122.911 13.5177 122.888 13.428 122.877 13.3435H122.834L122.707 13.6075L122.604 13.4491V13.4517ZM123.431 17.544C123.508 18.006 124.023 20.3215 124.28 20.7307C124.299 20.7591 124.319 20.7864 124.341 20.8125C123.837 20.9102 123.326 20.9728 122.813 21V17.8318C122.625 18.0958 122.641 20.6541 122.569 21H122.203V12.2689L123.283 13.5098C123.283 13.5256 123.283 13.5415 123.283 13.56H123.312L123.421 13.6867L123.349 13.7316L123.649 13.7633L123.426 13.9534C123.365 13.8715 123.307 13.787 123.232 13.6893C123.198 14.0167 123.232 14.0616 123.423 14.0009C123.439 14.0722 123.455 14.1408 123.474 14.2279C123.19 14.1646 123.269 14.4154 123.163 14.492C122.816 14.2966 122.713 14.3098 122.498 14.6108L122.296 14.3652C122.205 14.6414 122.211 14.9401 122.312 15.2127V14.6847C122.513 14.7719 122.686 14.9122 122.813 15.0904C122.94 15.2687 123.015 15.4781 123.031 15.6959C123.068 16.1209 123.031 16.5513 123.031 16.9816C123.09 16.89 123.127 16.7862 123.139 16.678C123.155 16.5883 123.139 16.3982 123.139 16.3058C123.166 16.3058 123.211 16.4061 123.238 16.4061C123.264 16.4776 123.285 16.5508 123.301 16.6252C123.341 16.9315 123.362 17.243 123.413 17.5466L123.431 17.544ZM129.558 16.0285L129.526 16.1025L130.852 16.5302C130.852 16.5117 130.852 16.4906 130.873 16.4694L129.547 16.0285H129.558ZM131.006 15.2629L131.04 15.2761C131.189 15.3553 131.332 15.4398 131.483 15.5111L131.663 15.6008C131.56 15.783 131.449 15.9652 131.332 16.1421C130.516 15.9665 129.724 15.6926 128.974 15.3262C128.974 15.6114 129.215 15.5665 129.361 15.6167C129.892 15.7988 130.422 15.9757 130.979 16.1447C131.08 16.1737 131.183 16.1975 131.289 16.2186C131.223 16.3163 131.154 16.4166 131.085 16.5117H131.053L131.077 16.5249C130.682 17.0772 130.233 17.59 129.738 18.0562C129.589 17.8687 129.507 17.6074 129.239 17.5493C129.224 17.5675 129.21 17.587 129.197 17.6074L129.727 18.0615L129.462 18.3097L128.592 17.5625L128.534 17.6311L129.414 18.3519C128.702 18.9684 127.913 19.491 127.067 19.907C126.919 19.6429 126.707 19.2892 126.476 18.8958H127.42C127.421 18.9098 127.421 18.924 127.42 18.938H127.457V18.8879H127.799V18.9882L127.866 19.0014C127.884 18.9652 127.9 18.9271 127.911 18.8879H128.441L127.99 18.4549C127.996 18.3451 128.008 18.2358 128.027 18.1275L127.876 18.0536C127.876 18.146 127.876 18.2357 127.855 18.3176L127.473 17.9479V17.845C127.473 17.7948 127.409 17.7447 127.362 17.6734C127.362 17.7341 127.362 17.7922 127.362 17.8503L124.389 14.9883L124.328 15.0543C124.173 14.7673 124.046 14.4657 123.951 14.154C124.537 14.6055 124.863 15.2101 125.277 15.7566L124.635 14.5421C125.041 15.0863 125.518 15.5738 126.054 15.9916C125.573 15.5548 125.173 15.0363 124.874 14.4603C125.446 15.0191 126.067 15.5254 126.73 15.9731L124.821 14.2094C124.901 14.1857 124.919 14.1751 124.924 14.1804C125.086 14.2887 125.256 14.389 125.407 14.5104C126.341 15.2497 127.271 15.9916 128.197 16.7361C128.3 16.8426 128.437 16.9115 128.584 16.9315C128.666 16.9315 128.749 17.0608 128.82 17.1401C128.845 17.1786 128.861 17.2217 128.868 17.2668L128.942 17.2377C128.908 17.1506 128.897 17.0344 128.831 16.9737C128.3 16.5117 127.797 16.0391 127.24 15.6167C126.555 15.0886 125.837 14.6081 125.137 14.1065C125.079 14.055 125.028 13.9975 124.983 13.9349L125.046 13.8662L128.165 16.0523C128.088 15.9705 127.995 15.9124 127.916 15.8411C127.147 15.2018 126.333 14.6178 125.481 14.0933C125.277 13.9586 125.083 13.8055 124.887 13.6603C124.895 13.637 124.904 13.6141 124.914 13.5916C124.975 13.5916 125.052 13.5679 125.099 13.5916C125.707 13.919 126.325 14.2306 126.911 14.5923C127.338 14.8743 127.75 15.1793 128.144 15.5058C128.476 15.7698 128.794 16.0338 129.117 16.2978C129.005 16.1255 128.878 15.9629 128.738 15.812C128.184 15.1222 127.489 14.5579 126.699 14.1567C126.351 13.9877 126.009 13.8134 125.667 13.6286C125.606 13.587 125.549 13.5392 125.497 13.486L125.54 13.4385C126.948 13.5072 127.974 14.2464 128.839 15.2866C128.863 15.2602 128.884 15.2312 128.905 15.2048L127.873 14.1487C128.258 14.3335 128.598 14.4999 128.934 14.6583C129.071 14.7129 129.21 14.7605 129.351 14.8009L130.982 15.2312L131.006 15.2629ZM123.667 15.7909L123.85 15.5982C123.739 15.2085 123.656 14.8115 123.601 14.4101C123.534 14.8704 123.557 15.3391 123.667 15.7909ZM123.932 15.5269L124.198 15.247C124.044 14.9672 123.895 14.7058 123.752 14.4682C123.794 14.8231 123.854 15.1756 123.932 15.5243V15.5269ZM126.956 12.8102L126.937 12.8392L127.07 12.855C127.059 12.843 127.048 12.8315 127.035 12.8207H126.956V12.8102ZM126.261 7.48227L126.762 6.88559C126.568 7.06007 126.399 7.26094 126.261 7.48227ZM125.996 7.71989C125.863 7.80173 125.839 7.84133 125.898 7.90734L126.006 7.77797C126.004 7.75959 126.004 7.74091 126.006 7.72253L125.996 7.71989ZM131.056 4.93713H131.353C131.027 4.43743 130.66 3.96583 130.255 3.52728L128.956 5.45989C129.596 5.10044 130.321 4.91812 131.056 4.93186V4.93713ZM119.71 17.8476L121.943 15.2629L120.583 13.6788L119.71 14.7349V2.05142H117.793V18.9486H119.71V17.8239V17.8476ZM111.192 10.5C111.192 4.6916 116.029 5.9068e-08 121.999 5.9068e-08V21C116.029 21 111.192 16.2978 111.192 10.5ZM123.617 16.7519C124.044 18.1486 124.794 19.6984 125.609 20.4482C125.16 20.464 125.097 20.0575 124.792 19.9043C124.858 20.0944 124.914 20.2634 124.972 20.4324L124.924 20.464C124.89 20.4192 124.837 20.3796 124.826 20.3294C124.556 19.4171 124.215 18.5272 123.805 17.6681C123.67 17.441 123.556 17.2008 123.447 16.9948C123.513 17.5229 124.017 20.1631 124.344 20.7888C125.283 20.6048 126.195 20.2986 127.054 19.8779C126.765 19.5602 126.499 19.2223 126.258 18.8667H125.707L124.447 17.5757C124.55 17.7447 124.657 17.911 124.765 18.0773C124.55 17.8535 124.371 17.5979 124.235 17.3196L124.198 17.2853" fill="#1A1A1A"/>
</svg>
